<?xml version="1.0" encoding="UTF-8" standalone="no"?>
<!-- Created with Inkscape (http://www.inkscape.org/) -->

<svg
   xmlns:dc="http://purl.org/dc/elements/1.1/"
   xmlns:cc="http://creativecommons.org/ns#"
   xmlns:rdf="http://www.w3.org/1999/02/22-rdf-syntax-ns#"
   xmlns:svg="http://www.w3.org/2000/svg"
   xmlns="http://www.w3.org/2000/svg"
   xmlns:sodipodi="http://sodipodi.sourceforge.net/DTD/sodipodi-0.dtd"
   xmlns:inkscape="http://www.inkscape.org/namespaces/inkscape"
   width="48.334003mm"
   height="48.334518mm"
   viewBox="0 0 48.334003 48.334518"
   version="1.1"
   id="svg3721"
   inkscape:version="0.92.4 (5da689c313, 2019-01-14)"
   sodipodi:docname="email.svg">
  <defs
     id="defs3715" />
  <sodipodi:namedview
     id="base"
     pagecolor="#ffffff"
     bordercolor="#666666"
     borderopacity="1.0"
     inkscape:pageopacity="0.0"
     inkscape:pageshadow="2"
     inkscape:zoom="0.35"
     inkscape:cx="-257.23158"
     inkscape:cy="174.19796"
     inkscape:document-units="mm"
     inkscape:current-layer="layer1"
     showgrid="false"
     inkscape:window-width="1920"
     inkscape:window-height="1052"
     inkscape:window-x="0"
     inkscape:window-y="0"
     inkscape:window-maximized="1" />
  <metadata
     id="metadata3718">
    <rdf:RDF>
      <cc:Work
         rdf:about="">
        <dc:format>image/svg+xml</dc:format>
        <dc:type
           rdf:resource="http://purl.org/dc/dcmitype/StillImage" />
        <dc:title></dc:title>
      </cc:Work>
    </rdf:RDF>
  </metadata>
  <g
     inkscape:label="Layer 1"
     inkscape:groupmode="layer"
     id="layer1"
     transform="translate(-48.404427,-146.58869)">
    <path
       inkscape:connector-curvature="0"
       style="color:#000000;font-style:normal;font-variant:normal;font-weight:normal;font-stretch:normal;font-size:medium;line-height:normal;font-family:sans-serif;font-variant-ligatures:normal;font-variant-position:normal;font-variant-caps:normal;font-variant-numeric:normal;font-variant-alternates:normal;font-feature-settings:normal;text-indent:0;text-align:start;text-decoration:none;text-decoration-line:none;text-decoration-style:solid;text-decoration-color:#000000;letter-spacing:normal;word-spacing:normal;text-transform:none;writing-mode:lr-tb;direction:ltr;text-orientation:mixed;dominant-baseline:auto;baseline-shift:baseline;text-anchor:start;white-space:normal;shape-padding:0;clip-rule:nonzero;display:inline;overflow:visible;visibility:visible;opacity:1;isolation:auto;mix-blend-mode:normal;color-interpolation:sRGB;color-interpolation-filters:linearRGB;solid-color:#000000;solid-opacity:1;vector-effect:none;fill:#8ceef2;fill-opacity:1;fill-rule:nonzero;stroke:none;stroke-width:1.58749998px;stroke-linecap:butt;stroke-linejoin:miter;stroke-miterlimit:10;stroke-dasharray:none;stroke-dashoffset:0;stroke-opacity:1;color-rendering:auto;image-rendering:auto;shape-rendering:auto;text-rendering:auto;enable-background:accumulate"
       d="m 72.571416,146.58869 c -13.337673,0 -24.166989,10.82984 -24.166989,24.16752 0,13.33769 10.829316,24.167 24.166989,24.167 13.337698,0 24.167015,-10.82931 24.167015,-24.167 0,-13.33768 -10.829317,-24.16752 -24.167015,-24.16752 z m 0,1.5875 c 12.479734,0 22.579515,10.10028 22.579515,22.58002 0,12.47974 -10.099781,22.5795 -22.579515,22.5795 -12.479735,0 -22.579489,-10.09976 -22.579489,-22.5795 0,-12.47974 10.099754,-22.58002 22.579489,-22.58002 z m -8.805148,11.66596 c -2.8965,0 -5.257562,2.36053 -5.257562,5.25704 v 11.67887 c 0,2.89651 2.361062,5.25705 5.257562,5.25705 h 17.192228 c 2.896526,0 5.257562,-2.36054 5.257562,-5.25705 v -11.67887 c 0,-2.89651 -2.361036,-5.25704 -5.257562,-5.25704 z m 0,1.85208 h 17.192228 c 1.384617,0 2.554261,0.79758 3.090254,1.96422 l -11.675772,5.48391 -11.69334,-5.49217 c 0.53774,-1.16218 1.705293,-1.95596 3.08663,-1.95596 z m -3.405479,3.85248 11.973957,5.62394 0.01402,0.0295 0.02434,-0.0114 0.02434,0.0114 0.01402,-0.0295 11.952737,-5.61412 v 11.22153 c 0,1.9025 -1.502965,3.40496 -3.405478,3.40496 H 63.766506 c -1.902487,0 -3.405479,-1.50246 -3.405479,-3.40496 z"
       id="circle1653" />
  </g>
</svg>
