<?xml version="1.0" encoding="UTF-8" standalone="no"?>
<!-- Created with Inkscape (http://www.inkscape.org/) -->

<svg
   xmlns:dc="http://purl.org/dc/elements/1.1/"
   xmlns:cc="http://creativecommons.org/ns#"
   xmlns:rdf="http://www.w3.org/1999/02/22-rdf-syntax-ns#"
   xmlns:svg="http://www.w3.org/2000/svg"
   xmlns="http://www.w3.org/2000/svg"
   xmlns:sodipodi="http://sodipodi.sourceforge.net/DTD/sodipodi-0.dtd"
   xmlns:inkscape="http://www.inkscape.org/namespaces/inkscape"
   width="48.334003mm"
   height="48.334511mm"
   viewBox="0 0 48.334003 48.334511"
   version="1.1"
   id="svg2551"
   inkscape:version="0.92.4 (5da689c313, 2019-01-14)"
   sodipodi:docname="facebook.svg">
  <defs
     id="defs2545" />
  <sodipodi:namedview
     id="base"
     pagecolor="#ffffff"
     bordercolor="#666666"
     borderopacity="1.0"
     inkscape:pageopacity="0.0"
     inkscape:pageshadow="2"
     inkscape:zoom="1.4"
     inkscape:cx="-35.685673"
     inkscape:cy="203.86062"
     inkscape:document-units="mm"
     inkscape:current-layer="layer1"
     showgrid="false"
     inkscape:window-width="1920"
     inkscape:window-height="1052"
     inkscape:window-x="0"
     inkscape:window-y="0"
     inkscape:window-maximized="1" />
  <metadata
     id="metadata2548">
    <rdf:RDF>
      <cc:Work
         rdf:about="">
        <dc:format>image/svg+xml</dc:format>
        <dc:type
           rdf:resource="http://purl.org/dc/dcmitype/StillImage" />
        <dc:title></dc:title>
      </cc:Work>
    </rdf:RDF>
  </metadata>
  <g
     inkscape:label="Layer 1"
     inkscape:groupmode="layer"
     id="layer1"
     transform="translate(-60.499665,-147.34465)">
    <path
       inkscape:connector-curvature="0"
       style="color:#000000;font-style:normal;font-variant:normal;font-weight:normal;font-stretch:normal;font-size:medium;line-height:normal;font-family:sans-serif;font-variant-ligatures:normal;font-variant-position:normal;font-variant-caps:normal;font-variant-numeric:normal;font-variant-alternates:normal;font-feature-settings:normal;text-indent:0;text-align:start;text-decoration:none;text-decoration-line:none;text-decoration-style:solid;text-decoration-color:#000000;letter-spacing:normal;word-spacing:normal;text-transform:none;writing-mode:lr-tb;direction:ltr;text-orientation:mixed;dominant-baseline:auto;baseline-shift:baseline;text-anchor:start;white-space:normal;shape-padding:0;clip-rule:nonzero;display:inline;overflow:visible;visibility:visible;opacity:1;isolation:auto;mix-blend-mode:normal;color-interpolation:sRGB;color-interpolation-filters:linearRGB;solid-color:#000000;solid-opacity:1;vector-effect:none;fill:#8ceef2;fill-opacity:1;fill-rule:nonzero;stroke:none;stroke-width:1.58749998px;stroke-linecap:butt;stroke-linejoin:miter;stroke-miterlimit:10;stroke-dasharray:none;stroke-dashoffset:0;stroke-opacity:1;color-rendering:auto;image-rendering:auto;shape-rendering:auto;text-rendering:auto;enable-background:accumulate"
       d="m 84.666654,147.34465 c -13.337673,0 -24.166989,10.82983 -24.166989,24.16751 0,13.33769 10.829316,24.167 24.166989,24.167 13.337698,0 24.167016,-10.82931 24.167016,-24.167 -3e-5,-13.33768 -10.829318,-24.16751 -24.167016,-24.16751 z m 0,1.5875 c 12.479734,0 22.579486,10.10028 22.579516,22.58001 0,12.47974 -10.099782,22.5795 -22.579516,22.5795 -12.479735,0 -22.579489,-10.09976 -22.579489,-22.5795 0,-12.47973 10.099754,-22.58001 22.579489,-22.58001 z m 3.747055,7.43624 c -2.625698,0 -4.564671,0.5398 -5.816176,1.61953 -1.251506,1.06747 -1.876902,2.72385 -1.876902,4.96921 v 1.43557 h -3.276282 v 4.71134 h 3.276282 v 15.90187 h 6.58876 v -15.90187 h 5.631683 v -4.71134 h -5.631683 v -1.43557 c 0,-0.83434 0.183806,-1.41745 0.551895,-1.74873 0.368088,-0.34355 1.018275,-0.51521 1.950799,-0.51521 h 3.644212 v -4.3248 z"
       id="circle1649" />
  </g>
</svg>
