<?xml version="1.0" encoding="UTF-8" standalone="no"?>
<!-- Created with Inkscape (http://www.inkscape.org/) -->

<svg
   xmlns:dc="http://purl.org/dc/elements/1.1/"
   xmlns:cc="http://creativecommons.org/ns#"
   xmlns:rdf="http://www.w3.org/1999/02/22-rdf-syntax-ns#"
   xmlns:svg="http://www.w3.org/2000/svg"
   xmlns="http://www.w3.org/2000/svg"
   xmlns:sodipodi="http://sodipodi.sourceforge.net/DTD/sodipodi-0.dtd"
   xmlns:inkscape="http://www.inkscape.org/namespaces/inkscape"
   width="48.334003mm"
   height="48.334518mm"
   viewBox="0 0 48.334003 48.334518"
   version="1.1"
   id="svg3136"
   inkscape:version="0.92.4 (5da689c313, 2019-01-14)"
   sodipodi:docname="instagram.svg">
  <defs
     id="defs3130" />
  <sodipodi:namedview
     id="base"
     pagecolor="#ffffff"
     bordercolor="#666666"
     borderopacity="1.0"
     inkscape:pageopacity="0.0"
     inkscape:pageshadow="2"
     inkscape:zoom="0.35"
     inkscape:cx="-222.94586"
     inkscape:cy="194.19797"
     inkscape:document-units="mm"
     inkscape:current-layer="layer1"
     showgrid="false"
     inkscape:window-width="1920"
     inkscape:window-height="1052"
     inkscape:window-x="0"
     inkscape:window-y="0"
     inkscape:window-maximized="1" />
  <metadata
     id="metadata3133">
    <rdf:RDF>
      <cc:Work
         rdf:about="">
        <dc:format>image/svg+xml</dc:format>
        <dc:type
           rdf:resource="http://purl.org/dc/dcmitype/StillImage" />
        <dc:title></dc:title>
      </cc:Work>
    </rdf:RDF>
  </metadata>
  <g
     inkscape:label="Layer 1"
     inkscape:groupmode="layer"
     id="layer1"
     transform="translate(-39.332998,-151.88036)">
    <path
       inkscape:connector-curvature="0"
       style="color:#000000;font-style:normal;font-variant:normal;font-weight:normal;font-stretch:normal;font-size:medium;line-height:normal;font-family:sans-serif;font-variant-ligatures:normal;font-variant-position:normal;font-variant-caps:normal;font-variant-numeric:normal;font-variant-alternates:normal;font-feature-settings:normal;text-indent:0;text-align:start;text-decoration:none;text-decoration-line:none;text-decoration-style:solid;text-decoration-color:#000000;letter-spacing:normal;word-spacing:normal;text-transform:none;writing-mode:lr-tb;direction:ltr;text-orientation:mixed;dominant-baseline:auto;baseline-shift:baseline;text-anchor:start;white-space:normal;shape-padding:0;clip-rule:nonzero;display:inline;overflow:visible;visibility:visible;opacity:1;isolation:auto;mix-blend-mode:normal;color-interpolation:sRGB;color-interpolation-filters:linearRGB;solid-color:#000000;solid-opacity:1;vector-effect:none;fill:#8ceef2;fill-opacity:1;fill-rule:nonzero;stroke:none;stroke-width:1.58749998px;stroke-linecap:butt;stroke-linejoin:miter;stroke-miterlimit:10;stroke-dasharray:none;stroke-dashoffset:0;stroke-opacity:1;color-rendering:auto;image-rendering:auto;shape-rendering:auto;text-rendering:auto;enable-background:accumulate"
       d="m 63.500013,151.88036 c -13.337699,0 -24.167015,10.82983 -24.167015,24.16752 0,13.33768 10.829316,24.167 24.167015,24.167 13.337672,0 24.166989,-10.82932 24.166989,-24.167 0,-13.33769 -10.829317,-24.16752 -24.166989,-24.16752 z m 0,1.5875 c 12.479735,0 22.579489,10.10028 22.579489,22.58002 0,12.47974 -10.099754,22.5795 -22.579489,22.5795 -12.479734,0 -22.579515,-10.09976 -22.579515,-22.5795 0,-12.47974 10.099781,-22.58002 22.579515,-22.58002 z m -6.183101,8.26823 c -4.484581,0 -8.128185,3.64358 -8.128185,8.12818 v 12.36411 c 0,4.48461 3.643604,8.12767 8.128185,8.12767 h 12.363583 c 4.484608,0 8.128185,-3.64307 8.128185,-8.12767 v -12.36411 c 0,-4.4846 -3.643577,-8.12818 -8.128185,-8.12818 z m 0,2.11667 h 12.363583 c 3.348593,0 6.011518,2.66293 6.011518,6.01151 v 12.36411 c 0,3.34859 -2.662925,6.011 -6.011518,6.011 H 57.316912 c -3.348566,0 -6.011518,-2.66242 -6.011518,-6.011 v -12.36411 c 0,-3.34858 2.662952,-6.01151 6.011518,-6.01151 z m 13.747486,3.29695 a 1.3573125,1.3573125 0 0 0 -1.357022,1.35754 1.3573125,1.3573125 0 0 0 1.357022,1.35702 1.3573125,1.3573125 0 0 0 1.35755,-1.35702 1.3573125,1.3573125 0 0 0 -1.35755,-1.35754 z m -7.564385,1.65623 c -3.986927,0 -7.241434,3.25502 -7.241434,7.24194 0,3.98691 3.254507,7.24142 7.241434,7.24142 3.986901,0 7.241937,-3.25451 7.241937,-7.24142 0,-3.98692 -3.255036,-7.24194 -7.241937,-7.24194 z m 0,2.11667 c 2.842975,0 5.12527,2.28228 5.12527,5.12527 0,2.84298 -2.282295,5.12475 -5.12527,5.12475 -2.843001,0 -5.124767,-2.28177 -5.124767,-5.12475 0,-2.84299 2.281766,-5.12527 5.124767,-5.12527 z"
       id="circle1661" />
  </g>
</svg>
