<?xml version="1.0" encoding="UTF-8" standalone="no"?>
<!-- Created with Inkscape (http://www.inkscape.org/) -->

<svg
   xmlns:dc="http://purl.org/dc/elements/1.1/"
   xmlns:cc="http://creativecommons.org/ns#"
   xmlns:rdf="http://www.w3.org/1999/02/22-rdf-syntax-ns#"
   xmlns:svg="http://www.w3.org/2000/svg"
   xmlns="http://www.w3.org/2000/svg"
   xmlns:xlink="http://www.w3.org/1999/xlink"
   xmlns:sodipodi="http://sodipodi.sourceforge.net/DTD/sodipodi-0.dtd"
   xmlns:inkscape="http://www.inkscape.org/namespaces/inkscape"
   width="139.11035mm"
   height="18.367468mm"
   viewBox="0 0 139.11035 18.367468"
   version="1.1"
   id="svg4324"
   inkscape:version="0.92.4 (5da689c313, 2019-01-14)"
   sodipodi:docname="vhhacksca.svg">
  <defs
     id="defs4318">
    <linearGradient
       gradientTransform="matrix(0.26458333,0,0,0.26458333,-368.72422,-2.8706159)"
       inkscape:collect="always"
       xlink:href="#bc"
       id="linearGradient2512"
       gradientUnits="userSpaceOnUse"
       x1="2128.8999"
       y1="510.91"
       x2="1282.3101"
       y2="761.88" />
    <linearGradient
       id="bc"
       x1="2128.8999"
       y1="510.91"
       x2="1282.3101"
       y2="761.88"
       gradientUnits="userSpaceOnUse">
      <stop
         offset="0.03"
         stop-color="#fff"
         id="stop123" />
      <stop
         offset="0.09"
         stop-color="#dbf2f4"
         id="stop125" />
      <stop
         offset="0.18"
         stop-color="#b1e4e8"
         id="stop127" />
      <stop
         offset="0.26"
         stop-color="#90d8de"
         id="stop129" />
      <stop
         offset="0.34"
         stop-color="#78d0d7"
         id="stop131" />
      <stop
         offset="0.41"
         stop-color="#6acbd2"
         id="stop133" />
      <stop
         offset="0.48"
         stop-color="#65c9d1"
         id="stop135" />
      <stop
         offset="0.55"
         stop-color="#61c7d2"
         id="stop137" />
      <stop
         offset="0.64"
         stop-color="#54c3d3"
         id="stop139" />
      <stop
         offset="0.73"
         stop-color="#3fbbd6"
         id="stop141" />
      <stop
         offset="0.81"
         stop-color="#21b1d9"
         id="stop143" />
      <stop
         offset="0.83"
         stop-color="#21acda"
         id="stop145" />
      <stop
         offset="0.86"
         stop-color="#219fdd"
         id="stop147" />
      <stop
         offset="0.87"
         stop-color="#2199de"
         id="stop149" />
      <stop
         offset="0.91"
         stop-color="#2178e1"
         id="stop151" />
      <stop
         offset="0.98"
         stop-color="#213fe5"
         id="stop153" />
    </linearGradient>
  </defs>
  <sodipodi:namedview
     id="base"
     pagecolor="#ffffff"
     bordercolor="#666666"
     borderopacity="1.0"
     inkscape:pageopacity="0.0"
     inkscape:pageshadow="2"
     inkscape:zoom="0.35"
     inkscape:cx="-179.97144"
     inkscape:cy="143.28153"
     inkscape:document-units="mm"
     inkscape:current-layer="layer1"
     showgrid="false"
     inkscape:window-width="1920"
     inkscape:window-height="1052"
     inkscape:window-x="0"
     inkscape:window-y="0"
     inkscape:window-maximized="1" />
  <metadata
     id="metadata4321">
    <rdf:RDF>
      <cc:Work
         rdf:about="">
        <dc:format>image/svg+xml</dc:format>
        <dc:type
           rdf:resource="http://purl.org/dc/dcmitype/StillImage" />
        <dc:title></dc:title>
      </cc:Work>
    </rdf:RDF>
  </metadata>
  <g
     inkscape:label="Layer 1"
     inkscape:groupmode="layer"
     id="layer1"
     transform="translate(-27.962682,-168.37577)">
    <path
       inkscape:connector-curvature="0"
       style="fill:url(#linearGradient2512);stroke-width:0.26458332"
       d="m 44.554941,168.37577 v 18.06815 h 3.38119 v -6.26266 a 4.0931042,4.0931042 0 0 1 0.235638,-1.46038 2.9633333,2.9633333 0 0 1 0.635105,-1.02681 2.6617083,2.6617083 0 0 1 0.920883,-0.61908 2.9104167,2.9104167 0 0 1 1.092438,-0.20878 2.2251458,2.2251458 0 0 1 1.129638,0.30954 3.2490833,3.2490833 0 0 1 0.931731,0.81753 3.8840833,3.8840833 0 0 1 0.621665,1.1746 4.2571458,4.2571458 0 0 1 0.22479,1.36012 v 1.7198 1.942 2.25154 h 3.341925 v -6.1619 a 7.2178333,7.2178333 0 0 0 -0.434075,-2.51096 6.5219792,6.5219792 0 0 0 -1.2015,-2.0531 5.6567917,5.6567917 0 0 0 -1.820042,-1.38648 5.1487917,5.1487917 0 0 0 -2.264965,-0.50798 5.0270833,5.0270833 0 0 0 -1.881029,0.33331 4.5640625,4.5640625 0 0 0 -1.473809,0.9524 l -0.02381,-6.73086 z m 63.394059,0 v 18.079 h 3.41583 v -3.58789 l 1.21179,-1.32292 3.24374,4.89738 h 4.08244 l -5.17229,-7.17786 4.77541,-5.09891 h -4.15634 l -3.98475,4.23333 v -10.02213 z m -48.371203,0.51832 v 17.55242 h 3.762561 v -7.54838 h 8.006238 v 7.54321 h 3.762561 v -17.54725 h -3.762561 l 0.01349,6.58306 h -8.019728 v -6.58306 z m 24.476552,4.91081 a 5.699125,5.699125 0 0 0 -2.412789,0.50798 6.0510208,6.0510208 0 0 0 -1.918229,1.38648 6.3949792,6.3949792 0 0 0 -1.275371,2.0531 7.1199375,7.1199375 0 0 0 0,5.02709 6.38175,6.38175 0 0 0 1.275371,2.0531 6.0404375,6.0404375 0 0 0 1.918229,1.38648 5.699125,5.699125 0 0 0 2.412789,0.50798 6.8077292,6.8077292 0 0 0 2.090314,-0.32298 3.4395833,3.4395833 0 0 0 1.719791,-1.28571 l 0.346737,1.32292 h 2.934176 v -12.27419 l -2.934176,-0.0155 -0.346737,1.21181 a 3.6882917,3.6882917 0 0 0 -1.632479,-1.18804 6.1542083,6.1542083 0 0 0 -2.177626,-0.37052 z m 75.917321,0 a 5.699125,5.699125 0 0 0 -2.4133,0.50798 6.0510208,6.0510208 0 0 0 -1.91822,1.38648 6.3949792,6.3949792 0 0 0 -1.27538,2.0531 7.1199375,7.1199375 0 0 0 0,5.02709 6.38175,6.38175 0 0 0 1.27538,2.0531 6.0404375,6.0404375 0 0 0 1.91822,1.38648 5.699125,5.699125 0 0 0 2.4133,0.50798 6.8077292,6.8077292 0 0 0 2.08978,-0.32298 3.4395833,3.4395833 0 0 0 1.71979,-1.28571 l 0.34677,1.32292 h 2.94502 v -12.27419 l -2.94502,-0.0155 -0.34677,1.21181 a 3.6882917,3.6882917 0 0 0 -1.63245,-1.18804 6.1542083,6.1542083 0 0 0 -2.17712,-0.37052 z m -59.6527,0.017 a 6.4029167,6.4029167 0 0 0 -2.492874,0.50695 6.429375,6.429375 0 0 0 -2.029327,1.38647 6.6436875,6.6436875 0 0 0 -1.373029,2.05311 6.4717083,6.4717083 0 0 0 0,5.02708 6.6304583,6.6304583 0 0 0 1.373029,2.05311 6.4187917,6.4187917 0 0 0 2.029327,1.38648 6.1886042,6.1886042 0 0 0 2.500124,0.50798 6.1065833,6.1065833 0 0 0 2.72283,-0.61909 6.397625,6.397625 0 0 0 2.11667,-1.65933 l -2.11667,-2.07946 a 3.6697708,3.6697708 0 0 1 -1.24902,1.00304 3.3575625,3.3575625 0 0 1 -1.49759,0.35967 2.7754792,2.7754792 0 0 1 -1.163746,-0.24857 3.000375,3.000375 0 0 1 -0.952923,-0.68006 3.1511875,3.1511875 0 0 1 -0.642858,-1.03973 3.7041667,3.7041667 0 0 1 -0.235109,-1.34979 4.0057917,4.0057917 0 0 1 0.235109,-1.38596 3.6750625,3.6750625 0 0 1 0.642858,-1.12758 3.1538333,3.1538333 0 0 1 0.952923,-0.76688 2.4791458,2.4791458 0 0 1 1.163746,-0.28576 3.1538333,3.1538333 0 0 1 1.3126,0.25889 5.0270833,5.0270833 0 0 1 1.29913,0.92915 l 2.38125,-1.8309 a 6.4558333,6.4558333 0 0 0 -2.17766,-1.757 6.4029167,6.4029167 0 0 0 -2.79879,-0.64182 z m 46.30209,0 a 6.4029167,6.4029167 0 0 0 -2.49288,0.50695 6.429375,6.429375 0 0 0 -2.02933,1.38647 6.6436875,6.6436875 0 0 0 -1.37303,2.05311 6.4717083,6.4717083 0 0 0 0,5.02708 6.6304583,6.6304583 0 0 0 1.37303,2.05311 6.4187917,6.4187917 0 0 0 2.02933,1.38648 6.1886042,6.1886042 0 0 0 2.50012,0.50798 6.1065833,6.1065833 0 0 0 2.72283,-0.61909 6.397625,6.397625 0 0 0 2.11667,-1.65933 l -2.11667,-2.07946 a 3.6697708,3.6697708 0 0 1 -1.24902,1.00304 3.3575625,3.3575625 0 0 1 -1.49759,0.35967 2.7754792,2.7754792 0 0 1 -1.16374,-0.24857 3.000375,3.000375 0 0 1 -0.95293,-0.68006 3.1511875,3.1511875 0 0 1 -0.64286,-1.03973 3.7041667,3.7041667 0 0 1 -0.2351,-1.34979 4.0057917,4.0057917 0 0 1 0.2351,-1.38596 3.6750625,3.6750625 0 0 1 0.64286,-1.12758 3.1538333,3.1538333 0 0 1 0.95293,-0.76688 2.4791458,2.4791458 0 0 1 1.16374,-0.28576 3.1538333,3.1538333 0 0 1 1.3126,0.25889 5.0270833,5.0270833 0 0 1 1.29913,0.92915 l 2.38125,-1.8309 a 6.4558333,6.4558333 0 0 0 -2.17766,-1.757 6.4029167,6.4029167 0 0 0 -2.79878,-0.64182 z m -20.26232,0.0439 a 4.5931667,4.5931667 0 0 0 -1.71979,0.32247 4.8471667,4.8471667 0 0 0 -1.41026,0.85472 3.9078958,3.9078958 0 0 0 -0.95239,1.24902 3.4395833,3.4395833 0 0 0 -0.34674,1.51051 c 0,0.19931 0.0124,0.4639 0.0372,0.79375 a 2.413,2.413 0 0 0 0.35967,1.03972 3.8682083,3.8682083 0 0 0 1.0268,1.07694 5.572125,5.572125 0 0 0 2.04226,0.85473 3.0903333,3.0903333 0 0 0 0.74362,0.13488 2.5955625,2.5955625 0 0 1 0.81753,0.20928 2.2436667,2.2436667 0 0 1 0.61907,0.33332 0.587375,0.587375 0 0 1 0.26459,0.45785 1.1059583,1.1059583 0 0 1 -0.39688,0.74311 1.6880417,1.6880417 0 0 1 -1.23817,0.39687 2.31775,2.31775 0 0 1 -1.28571,-0.30954 2.1881042,2.1881042 0 0 1 -0.6935,-0.68006 c -0.34571,0.18168 -0.74967,0.38391 -1.2118,0.60616 l -1.26195,0.60565 a 3.175,3.175 0 0 0 0.68006,1.07694 4.4979167,4.4979167 0 0 0 1.07696,0.82837 5.8869792,5.8869792 0 0 0 1.34927,0.54467 5.6911875,5.6911875 0 0 0 1.49756,0.19844 5.7705625,5.7705625 0 0 0 1.90479,-0.30954 5.0720625,5.0720625 0 0 0 1.55858,-0.85421 4.1354375,4.1354375 0 0 0 1.05833,-1.26246 3.2093958,3.2093958 0 0 0 0.38394,-1.53427 3.175,3.175 0 0 0 -1.36012,-2.74661 4.8074792,4.8074792 0 0 0 -1.10587,-0.58962 10.678583,10.678583 0 0 0 -1.49757,-0.44494 c -0.16669,-0.0344 -0.33602,-0.0635 -0.508,-0.0873 -0.17637,-0.0247 -0.35277,-0.0538 -0.52917,-0.0873 a 1.9261667,1.9261667 0 0 1 -0.68006,-0.33331 0.77522917,0.77522917 0 0 1 -0.30953,-0.65577 1.0292292,1.0292292 0 0 1 0.32247,-0.6935 1.095375,1.095375 0 0 1 0.8418,-0.34675 1.8811875,1.8811875 0 0 1 0.97618,0.26458 1.3229167,1.3229167 0 0 1 0.60563,0.71727 l 2.64583,-0.89193 a 3.81,3.81 0 0 0 -0.60563,-1.2113 4.2333333,4.2333333 0 0 0 -0.97618,-0.93948 4.7625,4.7625 0 0 0 -2.72282,-0.8413 z m -98.396058,0.30128 4.950592,12.27419 h 4.405419 l 4.950089,-12.27419 h -3.688159 l -3.465936,9.08317 -3.489695,-9.08317 z m 56.544342,2.70424 a 4.0878125,4.0878125 0 0 1 1.249019,0.185 2.6246667,2.6246667 0 0 1 1.015947,0.59273 2.9104167,2.9104167 0 0 1 0.692997,1.05833 4.4185417,4.4185417 0 0 1 0.264583,1.62213 c -0.01588,1.13771 -0.33491,1.98099 -0.95758,2.52956 a 3.2755417,3.2755417 0 0 1 -2.264966,0.82785 2.9104167,2.9104167 0 0 1 -1.249018,-0.26458 3.4686875,3.4686875 0 0 1 -1.026293,-0.73019 3.2517292,3.2517292 0 0 1 -0.693499,-1.07693 3.7041667,3.7041667 0 0 1 0,-2.65876 3.2279167,3.2279167 0 0 1 0.693499,-1.09037 3.4792708,3.4792708 0 0 1 1.026293,-0.73019 2.9104167,2.9104167 0 0 1 1.249018,-0.26458 z m 75.927666,0 a 4.0878125,4.0878125 0 0 1 1.24851,0.185 2.6246667,2.6246667 0 0 1 1.01595,0.59273 2.9104167,2.9104167 0 0 1 0.6935,1.05833 4.4185417,4.4185417 0 0 1 0.26458,1.62213 c -0.0159,1.13771 -0.33544,1.98099 -0.95808,2.52956 a 3.2755417,3.2755417 0 0 1 -2.26446,0.82785 2.9104167,2.9104167 0 0 1 -1.24902,-0.26458 3.4686875,3.4686875 0 0 1 -1.02682,-0.73019 3.2517292,3.2517292 0 0 1 -0.69297,-1.07693 3.7041667,3.7041667 0 0 1 0,-2.65876 3.2279167,3.2279167 0 0 1 0.69297,-1.09037 3.4792708,3.4792708 0 0 1 1.02682,-0.73019 2.9104167,2.9104167 0 0 1 1.24902,-0.26458 z m -24.54836,5.98206 a 1.7912292,1.7912292 0 0 0 -1.28315,0.54777 1.9420417,1.9420417 0 0 0 0,2.69079 1.793875,1.793875 0 0 0 1.32291,0.54778 1.8944167,1.8944167 0 1 0 0,-3.78634 1.7912292,1.7912292 0 0 0 -0.0398,0 z"
       id="path1669" />
  </g>
</svg>
